<?xml version="1.0" standalone="no"?>
<!DOCTYPE svg PUBLIC "-//W3C//DTD SVG 20010904//EN"
 "http://www.w3.org/TR/2001/REC-SVG-20010904/DTD/svg10.dtd">
<svg version="1.0" xmlns="http://www.w3.org/2000/svg"
 width="746.000000pt" height="432.000000pt" viewBox="0 0 746.000000 432.000000"
 preserveAspectRatio="xMidYMid meet">
<metadata>
Created by potrace 1.16, written by Peter Selinger 2001-2019
</metadata>
<g transform="translate(0.000000,432.000000) scale(0.100000,-0.100000)"
fill="#000000" stroke="none">
<path d="M2640 4299 c-162 -8 -286 -35 -390 -87 -57 -28 -97 -58 -166 -127
-207 -205 -315 -410 -358 -680 -23 -144 -38 -190 -127 -373 -93 -194 -126
-285 -142 -393 -8 -60 -16 -83 -30 -90 -49 -27 -221 -81 -387 -124 -102 -25
-195 -53 -208 -61 -12 -8 -22 -25 -22 -38 0 -32 41 -46 151 -53 l87 -6 -2 -30
c-1 -27 3 -31 34 -39 32 -9 185 3 249 19 l25 6 -20 -32 c-104 -164 -239 -231
-463 -231 -181 0 -295 42 -402 149 -157 157 -188 350 -100 626 27 82 44 158
47 205 5 66 3 80 -18 120 -60 111 -288 146 -288 45 0 -12 11 -39 25 -59 14
-20 25 -44 25 -52 0 -8 -22 -72 -49 -142 -87 -226 -96 -269 -95 -487 0 -178 2
-196 28 -280 38 -126 93 -214 195 -315 128 -126 269 -202 468 -252 75 -19 114
-23 268 -22 161 0 190 3 276 26 211 57 364 143 505 282 109 109 173 204 284
425 89 179 125 241 140 241 5 0 -3 -20 -19 -45 -34 -54 -47 -110 -30 -131 34
-41 114 15 169 118 18 35 34 65 36 66 1 2 15 -6 31 -17 16 -12 43 -22 61 -24
17 -1 32 -3 32 -4 0 0 -13 -29 -30 -64 -57 -122 -61 -219 -7 -219 13 0 33 10
45 23 29 31 70 123 78 174 7 48 10 50 35 27 10 -9 39 -19 64 -21 25 -3 45 -7
45 -10 0 -2 -9 -32 -21 -66 -27 -80 -31 -180 -7 -203 43 -43 98 34 120 169 13
75 14 77 33 63 11 -9 41 -16 68 -16 41 0 48 -3 43 -17 -52 -171 -19 -326 54
-253 l21 21 -7 -28 c-17 -73 -127 -392 -173 -500 -46 -110 -51 -130 -51 -195
0 -142 51 -265 161 -388 113 -126 169 -202 169 -230 0 -14 -9 -65 -20 -114
-24 -110 -25 -174 -4 -205 15 -20 22 -23 61 -17 47 6 183 66 264 116 l49 30 0
-52 0 -51 -96 -96 c-109 -108 -134 -143 -134 -186 0 -54 19 -66 140 -90 173
-33 407 -30 533 7 94 28 111 94 56 213 -30 63 -31 71 -26 153 3 48 13 137 21
197 23 172 36 364 36 547 0 115 5 193 16 246 9 42 17 78 19 80 1 1 18 -13 38
-33 33 -33 57 -41 110 -35 16 1 13 -8 -17 -65 -19 -36 -40 -90 -47 -120 -10
-47 -10 -57 5 -79 47 -73 126 13 156 170 l12 61 25 -23 c27 -25 80 -40 113
-31 11 3 20 4 20 3 0 -1 -11 -30 -25 -65 -30 -74 -42 -168 -26 -199 17 -32 64
-29 90 4 28 35 41 84 48 176 l6 76 20 -19 c27 -25 74 -37 115 -31 37 5 37 7
16 -49 -9 -24 -17 -79 -17 -121 -2 -68 1 -80 20 -99 19 -20 26 -21 48 -11 41
19 58 73 59 188 l1 101 22 -17 c30 -24 84 -33 117 -20 l27 10 -8 -57 c-18
-128 -1 -218 44 -229 13 -4 22 -12 20 -18 -3 -6 -24 -58 -46 -116 -82 -207
-96 -236 -146 -309 -43 -64 -59 -79 -114 -108 -108 -55 -135 -96 -111 -168 34
-104 269 -195 504 -195 104 0 171 18 206 55 19 20 25 41 30 107 6 77 10 88 51
148 40 59 48 78 67 180 43 227 118 408 236 568 70 95 70 95 79 66 27 -93 52
-124 96 -124 45 0 55 90 20 192 -11 33 -18 67 -15 74 3 8 20 14 38 14 47 0 97
34 114 78 l15 37 57 -54 c31 -29 102 -88 157 -131 111 -86 274 -249 324 -322
58 -86 110 -209 126 -298 59 -334 59 -333 -10 -412 -99 -114 -94 -165 21 -202
47 -15 100 -20 254 -23 278 -7 392 14 425 78 25 48 19 117 -16 179 -18 30 -38
67 -46 82 -8 15 -18 74 -23 130 -8 98 -12 111 -83 273 -41 94 -91 215 -112
270 l-38 100 -1 295 c-2 291 -2 296 -30 395 -50 177 -55 216 -66 465 -5 135
-14 280 -20 323 -6 44 -9 82 -5 85 11 11 221 -214 278 -298 33 -49 67 -114 78
-150 44 -142 35 -309 -28 -504 -40 -125 -47 -192 -21 -209 26 -17 63 24 114
129 65 132 94 259 94 404 0 147 -22 239 -90 376 -86 175 -255 377 -432 516
-71 56 -84 72 -118 143 -59 121 -135 229 -240 339 -96 100 -265 245 -369 315
-241 164 -778 336 -1231 395 -165 22 -473 42 -1052 71 -476 24 -597 34 -843
71 -148 22 -293 30 -445 23z m195 -49 c24 -27 15 -43 -40 -69 -37 -17 -45 -26
-40 -39 14 -33 24 -86 18 -95 -3 -5 -32 -7 -64 -3 -58 6 -59 5 -59 -20 0 -14
-7 -38 -16 -55 -17 -33 -41 -33 -80 2 -25 23 -50 24 -62 3 -5 -8 -21 -24 -37
-34 l-29 -19 -23 32 c-13 17 -23 40 -23 50 0 16 -5 18 -27 13 -16 -4 -45 -9
-67 -13 l-38 -6 3 64 4 64 -30 6 c-28 6 -27 7 11 8 22 0 45 6 52 13 6 6 14 9
18 6 3 -4 -4 -16 -15 -27 -29 -29 -30 -111 -2 -111 34 0 80 22 86 41 11 32 24
21 18 -15 -5 -35 21 -96 41 -96 19 0 66 54 66 76 0 13 5 26 10 29 6 3 10 -2
10 -13 0 -27 48 -72 76 -72 18 0 25 8 33 36 6 23 6 45 0 61 -13 35 -12 37 17
14 17 -13 41 -21 65 -21 38 0 39 1 39 35 0 25 -8 44 -25 61 -32 32 -31 35 4
28 58 -12 113 40 79 74 -7 7 -8 12 -2 12 6 0 19 -9 29 -20z m1182 -102 c7 -6
36 -37 65 -70 46 -53 49 -60 35 -76 -8 -9 -24 -36 -36 -60 -12 -23 -26 -40
-30 -37 -14 8 -115 144 -156 209 l-38 59 73 -7 c41 -3 80 -12 87 -18z m-12
-255 c41 -42 45 -51 46 -97 0 -28 6 -66 13 -84 10 -30 9 -40 -16 -90 -15 -32
-46 -120 -69 -197 -22 -77 -50 -156 -61 -175 -17 -29 -18 -35 -5 -45 12 -8 3
-17 -45 -43 -33 -18 -57 -28 -54 -23 8 13 -31 81 -62 108 l-26 22 33 18 c167
91 247 205 259 369 10 156 -57 298 -185 385 -48 33 -142 69 -182 69 l-25 0 22
16 c21 15 25 15 41 0 26 -23 78 -20 104 7 l22 22 73 -107 c39 -59 92 -129 117
-155z m416 213 l28 -31 -27 -9 c-143 -48 -210 -221 -137 -354 42 -78 127 -132
206 -132 34 0 33 2 14 -43 -22 -53 -19 -152 6 -203 23 -49 77 -100 127 -121
78 -33 217 -8 267 48 17 18 18 17 40 -29 24 -52 80 -107 131 -128 56 -23 152
-18 211 11 77 39 131 122 133 203 0 37 -3 36 43 17 96 -40 230 -2 294 82 69
93 63 231 -14 314 l-25 27 38 12 c20 7 57 30 80 52 l43 40 52 -24 51 -23 -40
-23 c-23 -12 -67 -26 -99 -30 -72 -9 -79 -27 -22 -62 133 -81 159 -274 54
-398 -46 -55 -118 -86 -200 -86 -75 0 -109 12 -176 65 -46 36 -62 27 -48 -26
32 -115 -30 -247 -145 -308 -62 -32 -164 -30 -232 5 -85 45 -143 132 -144 216
0 49 -26 70 -44 37 -74 -129 -230 -181 -354 -119 -155 77 -199 272 -92 406 41
51 40 72 -2 61 -18 -4 -60 -8 -93 -8 -110 1 -215 83 -246 193 -14 51 -7 138
15 181 45 86 141 151 224 151 48 0 70 25 38 44 -48 29 -50 33 -16 28 20 -3 44
-17 61 -36z m371 -3 c5 -2 -2 -23 -13 -46 -12 -23 -24 -69 -27 -104 -4 -59 -6
-63 -29 -63 -15 0 -39 14 -59 34 -27 27 -34 42 -34 74 0 82 94 143 162 105z
m116 1 l31 -6 -28 -37 c-118 -150 -15 -371 174 -371 76 0 150 41 189 104 37
59 46 142 22 200 -9 22 -14 41 -12 43 11 12 72 -16 83 -38 18 -34 16 -127 -4
-185 -23 -67 -110 -154 -177 -177 -139 -48 -286 9 -363 140 -38 65 -44 179
-14 249 22 48 48 84 61 84 4 0 21 -3 38 -6z m210 -31 c92 -16 95 -18 121 -57
36 -55 37 -146 2 -198 -103 -150 -325 -94 -338 85 -5 64 26 131 76 164 40 27
24 27 139 6z m-1819 -42 c20 -5 21 -8 9 -18 -11 -10 -22 -10 -45 -1 -43 16
-93 0 -118 -38 -18 -28 -23 -30 -70 -26 -45 4 -53 1 -79 -24 -25 -26 -28 -34
-24 -81 3 -36 1 -53 -7 -53 -19 0 -54 -44 -61 -75 -8 -42 10 -83 46 -103 32
-18 32 -34 2 -82 l-16 -25 -25 55 c-37 79 -37 192 0 270 46 99 120 164 222
195 45 15 126 17 166 6z m1291 -43 c0 -39 29 -91 64 -114 l26 -16 -23 -32
c-17 -24 -22 -45 -22 -93 l0 -63 -44 0 c-191 0 -236 271 -54 335 52 19 53 19
53 -17z m1033 -38 c59 -18 107 -36 107 -40 0 -17 -42 -59 -74 -74 -53 -25 -76
-21 -76 12 0 36 -33 88 -70 110 -27 17 -31 38 -6 29 6 -2 59 -19 119 -37z
m-2874 -133 c-6 -23 -12 -74 -13 -114 l-1 -71 -65 62 c-36 34 -77 71 -92 80
-22 15 -26 22 -18 36 6 10 10 37 10 59 0 39 1 40 26 31 37 -14 42 -13 58 19
l15 28 46 -43 46 -44 -12 -43z m2757 89 c28 -28 34 -42 34 -76 0 -76 -82 -132
-153 -104 -13 5 -12 12 5 51 11 25 23 72 25 104 5 55 8 59 30 59 15 0 39 -14
59 -34z m-1821 -90 c73 -56 88 -151 36 -223 -97 -133 -301 -60 -288 103 9 128
152 196 252 120z m1075 9 c0 -25 46 -108 74 -134 14 -14 26 -28 26 -32 0 -12
-56 -39 -80 -39 -77 0 -134 95 -99 163 23 45 79 74 79 42z m1299 -106 c29 -33
52 -61 50 -63 -2 -1 -37 -14 -77 -28 l-73 -26 -14 27 c-7 15 -27 42 -44 60
-26 27 -27 33 -13 37 9 3 37 15 62 28 25 13 47 24 50 25 3 0 30 -26 59 -60z
m-413 -36 c62 -145 -110 -294 -244 -213 l-33 20 23 33 c18 25 23 45 23 95 l0
62 30 0 c37 0 88 30 111 65 l17 26 30 -28 c16 -15 36 -42 43 -60z m488 56 c61
-38 196 -139 196 -148 0 -8 -296 -158 -327 -166 -22 -6 -23 -4 -23 59 0 36 -1
69 -1 74 -1 4 44 23 99 42 55 19 103 38 107 42 4 4 -22 34 -57 67 -34 33 -59
60 -54 61 5 0 32 -14 60 -31z m-3791 -22 c49 -21 98 -67 118 -112 21 -46 25
-133 6 -159 -12 -16 -15 -16 -61 5 -71 31 -146 24 -188 -18 l-31 -31 33 -32
c30 -30 37 -32 86 -28 37 3 63 12 89 32 20 16 39 25 42 22 11 -11 -61 -78
-105 -98 -32 -15 -230 -48 -285 -48 -5 0 4 11 20 24 15 12 47 26 71 29 24 3
46 7 48 10 3 3 0 25 -7 48 -13 43 -14 71 -3 117 4 20 9 22 34 17 93 -21 161
71 102 138 -18 20 -82 23 -100 5 -17 -17 -16 6 3 42 26 50 67 62 128 37z
m3021 -49 c47 -67 -15 -168 -103 -168 -31 0 -101 51 -101 74 0 6 22 19 48 28
26 10 66 33 87 52 22 19 43 35 47 36 4 0 14 -10 22 -22z m-1162 -128 c5 0 -14
-45 -42 -100 -52 -100 -56 -126 -18 -114 11 3 60 3 109 -1 84 -7 89 -8 89 -30
0 -12 7 -42 15 -65 8 -23 15 -44 15 -46 0 -12 -106 0 -247 27 -140 28 -161 34
-154 48 5 9 27 78 50 154 23 76 50 156 61 176 l19 38 47 -43 c26 -24 51 -44
56 -44z m491 68 c25 -18 45 -23 95 -23 l62 0 0 -30 c0 -37 30 -88 65 -111 l26
-17 -23 -25 c-29 -31 -94 -61 -132 -62 -48 0 -115 38 -144 82 -33 51 -36 126
-7 176 11 17 21 32 23 32 2 0 18 -10 35 -22z m358 -25 c53 -5 59 -8 59 -28 0
-12 -9 -34 -20 -47 -72 -92 -214 -35 -201 82 4 38 9 40 57 19 26 -12 73 -24
105 -26z m-2032 -50 c-49 -96 -55 -244 -19 -490 5 -37 10 -98 10 -135 0 -41 4
-68 11 -68 5 0 27 13 47 29 20 16 88 59 150 95 191 110 302 200 334 271 6 14
15 25 20 25 13 0 -30 -79 -68 -126 -49 -61 -148 -130 -339 -237 l-170 -95 -3
41 c-2 23 -12 101 -23 172 -46 304 -34 423 53 548 30 42 29 32 -3 -30z m3416
-29 c48 -44 55 -54 35 -50 -127 26 -143 18 -150 -81 -4 -59 -8 -68 -24 -68
-22 0 -106 114 -106 143 0 11 31 34 88 64 48 26 89 48 92 48 3 0 32 -25 65
-56z m-3242 24 c2 -7 1 -38 -4 -68 -4 -30 -8 -106 -8 -167 -1 -91 2 -113 13
-113 8 0 16 4 18 8 6 16 147 122 162 122 47 0 12 -33 -145 -138 l-76 -51 -7
138 c-5 123 0 201 20 264 6 20 20 22 27 5z m1139 -25 l57 -6 -13 -26 c-8 -14
-19 -46 -26 -70 l-12 -44 -75 7 c-42 3 -78 8 -80 9 -2 2 11 36 29 76 24 55 35
70 47 65 9 -3 42 -8 73 -11z m894 -39 c14 -4 43 -4 65 -1 l39 5 0 -44 c0 -96
-80 -174 -176 -174 -72 0 -151 66 -168 141 -5 25 -3 27 35 32 49 6 86 29 107
67 l16 28 29 -24 c16 -13 40 -27 53 -30z m1266 -47 c29 1 43 -6 69 -33 29 -30
33 -40 33 -93 l1 -59 -30 16 c-50 27 -136 20 -192 -14 -163 -101 -190 -343
-49 -433 l44 -27 -28 -19 c-106 -71 -98 -269 14 -373 81 -75 207 -95 276 -43
l30 22 0 -28 c1 -39 32 -103 66 -135 38 -35 89 -56 158 -64 l56 -7 0 -56 0
-55 -48 47 c-26 26 -57 47 -68 47 -11 0 -43 -16 -70 -35 -27 -19 -52 -35 -56
-35 -4 0 -17 19 -29 43 -12 23 -28 50 -37 60 -18 21 -65 22 -121 2 -38 -13
-41 -13 -51 5 -5 10 -10 30 -10 44 0 31 -18 78 -33 88 -7 4 -40 8 -74 8 -34 0
-65 5 -68 10 -4 6 -1 35 5 66 15 72 1 96 -72 119 -29 10 -56 20 -60 22 -4 2 4
27 18 54 36 72 30 105 -26 147 -25 19 -47 38 -48 44 -2 5 17 31 43 59 54 58
54 77 4 140 -16 20 -29 42 -29 48 0 6 19 20 43 32 83 42 91 63 61 153 -9 26
-14 49 -11 52 2 2 30 9 62 14 81 13 95 29 95 105 0 34 3 65 7 69 4 4 26 4 48
-1 22 -4 56 -7 77 -6z m-4511 -127 c11 -23 19 -43 19 -45 0 -1 -21 -10 -46
-20 -25 -9 -65 -32 -89 -50 -42 -33 -43 -33 -49 -12 -11 42 -6 53 29 66 47 16
68 50 63 99 l-3 39 29 -18 c15 -9 37 -36 47 -59z m923 -60 c4 -55 13 -139 21
-187 21 -126 21 -123 -22 -123 -34 0 -40 4 -56 40 -17 37 -17 41 0 97 13 42
18 91 18 180 0 111 1 120 16 107 12 -11 18 -42 23 -114z m-361 89 c-22 -38
-96 -105 -143 -129 -51 -26 -100 -37 -241 -54 -144 -18 -183 -31 -241 -84 -54
-49 -78 -102 -78 -176 0 -77 26 -132 91 -190 81 -73 202 -107 309 -86 104 19
196 73 298 177 52 51 85 81 74 66 -66 -93 -194 -193 -301 -234 -77 -31 -194
-30 -273 0 -71 27 -158 105 -188 166 -43 89 -21 204 54 277 51 50 112 76 201
88 41 6 109 15 151 20 123 16 224 74 274 155 27 43 38 47 13 4z m39 -57 c-7
-9 -15 -25 -18 -34 -4 -10 -13 -18 -22 -18 -20 0 -52 -29 -52 -47 0 -7 -11
-13 -24 -13 -24 0 -56 -23 -56 -39 0 -5 -11 -6 -24 -4 -13 3 -34 -1 -47 -8
-24 -13 -68 -19 -143 -19 -22 0 -49 -6 -60 -14 -12 -7 -29 -10 -41 -6 -26 9
-50 2 -71 -21 -9 -10 -24 -19 -33 -19 -33 0 -61 -30 -61 -64 0 -19 -7 -39 -15
-46 -27 -23 -13 -110 18 -110 7 0 13 -12 14 -27 1 -30 35 -63 63 -63 9 0 25
-9 36 -21 13 -14 29 -20 54 -18 19 1 48 -4 64 -10 23 -9 36 -9 58 0 15 6 28
14 28 18 0 4 15 5 34 3 26 -3 37 1 53 22 12 14 31 26 44 26 28 0 59 27 59 51
0 12 9 19 27 21 19 2 32 13 43 33 8 17 19 32 24 34 21 9 46 43 46 62 0 12 11
30 25 41 16 13 25 29 25 49 0 16 9 38 21 50 13 13 20 31 18 52 -1 18 4 44 11
60 9 19 10 34 3 50 -7 17 -5 26 10 41 20 19 20 18 15 -70 -19 -313 -333 -619
-588 -572 -191 35 -300 199 -224 339 46 83 121 121 270 134 178 15 294 62 367
147 28 32 45 44 52 37 6 -6 5 -15 -3 -27z m3480 -8 c65 -15 108 -40 108 -64 0
-6 -16 -8 -42 -3 -104 18 -185 4 -233 -39 l-35 -30 0 53 c0 98 48 118 202 83z
m472 -38 c50 -21 52 -33 9 -79 -21 -23 -48 -58 -60 -77 -32 -52 -63 -153 -63
-205 0 -43 -1 -46 -22 -39 -105 32 -147 122 -113 239 12 43 28 69 65 106 64
64 121 81 184 55z m-994 -13 c19 -9 47 -19 64 -23 l31 -6 -3 -79 c-2 -44 -4
-81 -6 -82 -2 -2 -35 11 -74 29 -52 24 -70 37 -66 48 3 8 8 41 11 73 3 31 7
57 8 57 1 0 17 -7 35 -17z m280 -45 c-1 -24 -15 -116 -33 -205 -27 -132 -36
-160 -47 -153 -8 4 -67 22 -130 40 -63 18 -144 46 -180 62 l-65 29 27 20 c15
11 36 35 48 54 l21 33 67 -30 c37 -17 80 -39 95 -50 42 -30 58 -18 51 36 -4
24 -3 73 0 109 l7 64 62 15 c34 8 65 16 70 17 4 0 7 -18 7 -41z m904 17 c22
-34 21 -38 -20 -60 -53 -28 -120 -108 -143 -171 -29 -75 -28 -184 1 -261 26
-70 106 -154 175 -185 26 -12 78 -23 115 -26 38 -3 68 -8 68 -12 0 -4 3 -22 7
-40 l6 -33 -80 5 c-154 11 -289 104 -356 245 -30 64 -32 75 -32 178 0 103 2
114 31 175 38 78 92 143 153 182 25 15 48 28 52 28 4 0 14 -11 23 -25z m-2579
-10 c61 -12 103 -25 95 -28 -104 -34 -160 -57 -243 -99 l-97 -50 -63 16 c-34
9 -72 17 -85 18 -20 3 -12 11 44 48 79 51 210 120 227 119 7 0 62 -11 122 -24z
m-1566 -73 c-59 -175 -238 -343 -383 -359 -62 -7 -134 19 -178 65 -47 48 -53
73 -32 117 24 51 71 72 195 85 190 20 272 48 369 123 25 19 46 34 47 33 2 -2
-6 -30 -18 -64z m3579 47 c44 -14 40 -34 -10 -60 -90 -45 -98 -75 -43 -153 19
-27 32 -53 29 -57 -15 -24 -129 9 -190 56 -103 79 -77 194 51 226 34 9 114 2
163 -12z m-1776 -26 c-11 -16 -42 -68 -70 -118 -59 -106 -102 -152 -145 -160
-20 -4 -68 4 -127 20 -52 14 -129 33 -170 42 -73 16 -77 16 -115 -3 -70 -34
-72 -46 -49 -359 6 -83 5 -92 -16 -118 -26 -33 -73 -58 -178 -95 -67 -24 -81
-26 -112 -16 l-35 12 30 12 c17 6 55 21 85 32 168 63 189 116 155 378 -17 127
-13 177 17 215 28 36 96 34 240 -9 143 -42 204 -51 256 -37 45 13 94 62 137
137 53 93 54 94 86 94 l30 0 -19 -27z m-583 13 c-2 -2 -49 -37 -104 -79 -55
-41 -127 -103 -159 -136 -56 -56 -61 -59 -78 -45 -10 10 -29 15 -46 12 -16 -2
-34 2 -41 9 -15 16 -73 17 -89 1 -8 -8 -15 -9 -22 -2 -6 6 17 25 65 53 40 24
100 65 132 91 l58 47 35 -43 c19 -24 40 -44 45 -44 16 0 72 62 80 88 4 15 14
22 33 22 15 1 38 7 52 15 23 13 50 21 39 11z m1093 -183 c-31 -29 -59 -52 -63
-53 -3 0 -15 30 -28 68 -12 37 -25 72 -27 78 -3 6 8 17 24 23 17 7 42 26 57
41 l28 30 33 -67 32 -67 -56 -53z m-622 162 c0 -3 -15 -30 -34 -59 -37 -57
-76 -93 -113 -102 -25 -7 -140 12 -163 26 -15 9 116 76 226 114 75 27 84 29
84 21z m147 -34 c-33 -35 -47 -64 -47 -96 0 -43 27 -93 62 -115 39 -23 111
-26 148 -6 24 14 25 13 61 -52 30 -53 35 -70 28 -89 -13 -34 -11 -90 5 -151
13 -50 12 -52 -8 -52 -12 0 -31 3 -43 6 l-22 6 20 49 c21 55 26 157 8 192 -20
39 -51 57 -100 57 -117 0 -152 -133 -69 -264 l29 -45 -37 -11 c-20 -5 -39 -10
-42 -10 -3 0 -4 35 -2 78 3 65 0 84 -20 122 -31 60 -80 86 -137 70 -110 -29
-108 -166 3 -268 26 -24 46 -45 44 -47 -6 -5 -67 -35 -73 -35 -3 0 -5 8 -5 18
0 52 -34 129 -76 171 -42 42 -46 43 -91 38 -64 -7 -103 -49 -103 -111 0 -62
41 -114 123 -156 l65 -34 -26 -31 -27 -31 -25 41 c-41 67 -53 81 -94 109 -71
48 -165 24 -185 -49 -25 -93 51 -171 181 -182 32 -3 58 -10 58 -14 0 -5 -8
-24 -17 -43 l-16 -35 -49 45 c-57 53 -102 74 -158 74 -51 0 -76 -13 -100 -52
l-18 -31 -21 41 c-33 65 -65 84 -133 80 -32 -2 -58 -1 -58 2 0 3 43 20 95 38
52 19 113 47 135 63 66 48 66 41 44 364 -6 87 -5 92 18 120 33 37 79 37 218
-3 236 -68 278 -53 380 134 57 104 79 136 92 128 5 -4 -1 -17 -15 -33z m2362
2 c11 -24 10 -29 -5 -38 -87 -50 -129 -122 -128 -221 0 -62 4 -78 30 -120 39
-63 94 -101 169 -116 64 -12 75 -20 75 -55 0 -20 -5 -23 -45 -23 -103 0 -222
76 -272 174 -19 37 -27 71 -31 127 -4 68 -1 84 22 135 29 63 72 115 121 145
40 25 50 24 64 -8z m-2260 -27 c16 -9 30 -32 42 -72 10 -33 19 -63 19 -67 0
-4 -16 -15 -35 -23 -30 -12 -39 -12 -69 0 -35 15 -66 59 -66 95 0 25 47 81 68
81 10 -1 28 -7 41 -14z m243 -97 c15 -41 27 -84 27 -97 2 -45 30 -37 94 25 93
89 91 88 126 64 16 -12 44 -27 61 -35 l32 -13 -33 -32 c-19 -18 -93 -73 -166
-121 l-132 -89 -52 97 c-64 117 -115 219 -124 249 -6 21 -3 22 57 25 35 2 68
3 73 3 6 -1 22 -35 37 -76z m2076 -24 c20 -60 44 -163 66 -284 l6 -34 -41 7
c-87 14 -151 67 -178 145 -14 42 -14 65 0 116 12 44 90 130 111 123 7 -2 23
-35 36 -73z m-954 -2 c30 -35 91 -71 159 -93 32 -10 36 -14 25 -27 -16 -20
-92 -13 -169 16 -92 35 -93 36 -78 110 11 51 15 60 24 46 5 -10 23 -33 39 -52z
m-513 -42 c25 -12 26 -17 32 -129 15 -286 96 -534 249 -763 76 -114 234 -279
348 -365 96 -73 307 -181 423 -218 165 -53 381 -82 525 -71 l83 7 -3 -39 -3
-38 -170 1 c-248 2 -412 39 -642 149 -437 208 -743 595 -853 1080 -22 96 -41
411 -24 403 5 -2 21 -10 35 -17z m-111 -20 c15 -28 12 -83 -5 -108 -20 -29
-75 -46 -107 -34 -28 11 -68 56 -68 78 0 7 15 29 33 48 28 30 38 34 84 34 42
1 54 -3 63 -18z m202 -16 c10 -4 13 -16 10 -35 -5 -38 12 -60 47 -60 31 0 51
16 51 41 0 12 6 16 20 12 17 -4 20 -14 20 -57 0 -192 84 -446 211 -641 65
-100 239 -275 339 -342 227 -152 440 -217 712 -218 l158 0 0 -82 0 -81 -67 -8
c-97 -10 -299 11 -433 44 -267 68 -493 202 -691 409 -191 199 -314 436 -370
706 -20 98 -38 317 -26 317 3 0 12 -2 19 -5z m-2022 -63 c49 -30 97 -98 110
-157 18 -80 -39 -165 -110 -165 -74 0 -120 71 -80 123 25 31 46 34 72 10 22
-20 24 -43 3 -43 -8 0 -15 7 -15 15 0 27 -39 17 -46 -12 -10 -36 36 -78 75
-68 94 23 104 137 19 239 -72 88 -198 89 -285 2 -29 -29 -44 -38 -47 -29 -9
23 -36 14 -56 -19 -11 -18 -20 -28 -20 -23 0 22 52 85 93 113 98 67 192 72
287 14z m2450 -2 c30 -10 69 -21 85 -25 l30 -7 -36 -13 c-97 -35 -187 -101
-230 -171 -11 -19 -24 -55 -28 -82 l-7 -47 -22 93 c-13 51 -25 128 -29 172 -7
92 -3 95 76 60 62 -28 71 -26 71 16 0 30 3 35 18 29 9 -4 42 -15 72 -25z
m-5625 -15 c33 -9 60 -17 62 -18 1 -2 -7 -33 -18 -70 l-20 -67 -84 0 c-46 0
-95 -4 -109 -10 -31 -12 -31 -13 -3 80 31 103 56 115 172 85z m2696 -29 c5 -6
21 -1 41 13 18 13 27 18 21 10 -7 -7 -13 -23 -13 -36 0 -13 -9 -32 -21 -44
-14 -14 -20 -31 -18 -52 2 -18 -3 -42 -9 -54 -7 -12 -12 -29 -12 -38 0 -11 -6
-15 -17 -11 -10 3 -54 14 -98 25 -44 11 -98 26 -120 34 l-40 14 52 17 c28 9
56 23 63 31 9 11 16 11 38 0 15 -7 48 -15 75 -19 l47 -6 0 58 c0 31 -4 64 -9
72 -6 8 -7 19 -3 25 4 5 8 1 10 -10 2 -11 8 -24 13 -29z m2124 -22 c43 -45 94
-52 155 -22 l48 24 6 -61 c4 -33 10 -77 13 -99 l6 -38 -24 15 c-90 56 -195 -7
-239 -145 -12 -40 -18 -40 -65 -2 -13 11 -16 18 -8 21 27 10 93 64 118 97 33
43 44 115 24 152 -18 34 -59 54 -110 54 -76 0 -129 -83 -129 -202 l0 -56 -44
16 -43 16 43 59 c26 35 47 75 50 99 6 34 14 44 78 87 62 43 72 47 81 33 6 -9
24 -31 40 -48z m1389 -122 c26 -52 98 -133 146 -165 l25 -17 -27 -26 c-58 -59
-176 -38 -247 43 -96 108 -90 241 13 304 l31 19 16 -53 c9 -28 28 -76 43 -105z
m-3143 81 c-19 -15 -31 -34 -31 -48 0 -12 -6 -28 -14 -34 -8 -6 -19 -32 -25
-56 -12 -49 -13 -50 -39 -34 -12 8 -17 20 -14 34 2 13 -1 32 -7 43 -7 14 -8
23 -1 27 5 3 10 16 10 29 0 15 9 27 25 34 14 6 25 19 25 27 0 12 6 15 20 10
11 -3 28 -2 37 4 12 6 22 6 31 -2 11 -8 7 -15 -17 -34z m2742 33 c17 -13 13
-17 -43 -47 -143 -76 -190 -202 -109 -294 50 -57 147 -71 256 -37 l60 19 -5
-23 c-8 -41 -161 -103 -256 -104 -127 -1 -229 95 -229 215 0 111 93 210 247
266 62 22 57 21 79 5z m74 -62 c3 -8 -7 -40 -22 -70 -37 -72 -27 -95 47 -119
54 -18 78 -32 78 -45 0 -16 -109 -53 -170 -57 -56 -4 -70 -2 -100 19 -100 68
-63 185 82 258 70 35 76 36 85 14z m-4209 -118 l45 -23 -55 -31 c-31 -18 -62
-32 -70 -32 -19 0 -92 77 -113 119 -16 33 -16 34 11 62 l27 28 55 -50 c30 -27
75 -60 100 -73z m158 -52 c19 -5 13 -20 -81 -203 -94 -184 -160 -295 -217
-364 l-23 -28 -74 15 c-135 28 -250 100 -322 199 -34 46 -27 71 21 81 24 4 35
15 47 43 l16 38 13 -50 c10 -35 11 -60 4 -85 -18 -64 -15 -70 35 -70 31 0 55
-8 81 -25 20 -14 42 -25 49 -25 14 0 35 42 35 70 0 11 6 20 13 20 17 1 67 46
67 62 0 7 -16 24 -35 38 -19 14 -35 30 -35 35 0 6 -8 27 -18 46 l-18 36 50 18
c28 9 56 19 62 22 7 3 9 -14 6 -52 l-5 -56 54 2 c35 1 66 -4 86 -14 51 -27 61
-22 68 28 5 31 17 55 41 80 19 20 34 40 34 44 0 4 -21 19 -46 33 l-46 25 34
21 c34 21 67 26 104 16z m2583 -5 c133 -21 242 -75 336 -165 170 -162 233
-410 159 -624 -17 -47 -47 -111 -67 -142 l-37 -58 -67 1 c-62 1 -64 2 -25 8
23 4 55 16 70 27 61 45 83 155 41 208 -12 15 -20 28 -18 30 2 1 16 7 32 14 40
17 67 68 67 127 0 79 -37 130 -115 159 -6 2 -6 8 3 17 6 7 12 37 12 67 0 69
-26 113 -84 141 -47 23 -72 26 -109 12 -23 -9 -26 -7 -31 24 -8 42 -46 88 -86
105 -18 7 -53 11 -87 8 -49 -4 -61 -10 -89 -41 -24 -26 -36 -33 -41 -23 -28
44 -124 61 -182 31 -48 -24 -81 -72 -81 -116 l0 -39 -54 0 c-44 0 -60 -5 -86
-26 -43 -36 -60 -74 -60 -132 0 -35 6 -57 21 -76 l20 -26 -23 -9 c-13 -5 -30
-16 -37 -25 -13 -15 -15 -15 -32 3 -10 10 -23 21 -29 23 -7 2 -5 21 6 58 48
163 168 308 315 378 46 22 109 45 139 51 30 6 64 13 75 15 37 7 80 6 144 -5z
m-3385 -60 c-40 -44 -168 -102 -222 -102 -47 0 -64 14 -60 48 2 16 20 25 88
43 47 13 114 27 150 31 36 5 67 9 69 10 3 0 -8 -13 -25 -30z m-1014 -13 c0
-19 -7 -26 -32 -31 -57 -13 -115 -43 -157 -80 l-41 -37 0 45 c0 41 3 46 40 71
40 26 124 54 168 55 17 1 22 -5 22 -23z m1162 -39 c-49 -50 -52 -64 -14 -69
17 -2 -5 -10 -62 -22 -86 -19 -89 -19 -102 -1 -27 36 -17 53 49 87 54 27 103
42 157 47 8 0 -5 -18 -28 -42z m5431 -7 l57 0 0 -91 0 -92 -45 6 c-91 13 -168
73 -181 142 -11 59 -3 66 58 49 29 -7 79 -14 111 -14z m-587 -161 c-56 -114
-45 -230 26 -281 80 -56 194 -21 276 84 44 56 47 58 56 38 22 -48 -101 -213
-188 -254 -111 -52 -232 -12 -287 97 -29 56 -24 160 13 237 39 83 84 140 111
140 l24 0 -31 -61z m118 39 c3 -13 7 -41 10 -63 6 -43 39 -80 65 -72 97 28
111 31 123 19 9 -9 3 -24 -26 -67 -68 -97 -152 -142 -217 -114 -85 35 -91 164
-13 282 27 42 51 48 58 15z m-1658 -27 c115 -53 188 -148 214 -275 31 -151
-62 -327 -208 -395 l-52 -24 -127 26 c-202 42 -231 54 -275 112 -50 66 -72
134 -72 220 0 127 57 234 164 307 108 74 237 84 356 29z m1234 -16 c80 1 110
8 213 50 14 6 12 -3 -12 -41 -68 -107 -89 -229 -56 -323 l15 -42 -38 29 c-94
75 -246 256 -300 358 -10 19 -8 19 41 -5 44 -22 65 -26 137 -26z m-5581 -67
c16 -18 27 -36 25 -39 -2 -4 -33 -4 -69 -2 l-65 6 -40 -40 c-36 -37 -40 -46
-40 -90 0 -37 7 -60 25 -86 13 -20 20 -39 16 -41 -9 -6 -36 21 -79 83 l-31 43
19 37 c25 49 90 107 154 137 28 13 52 24 54 24 1 0 15 -15 31 -32z m1017 -129
c22 -20 58 -48 81 -63 51 -31 180 -76 220 -76 28 0 28 -1 -21 -47 l-48 -46
-36 42 -35 43 -66 -4 -65 -3 -13 44 c-16 57 -21 61 -85 76 l-53 12 3 54 c5 77
18 87 52 41 15 -20 45 -53 66 -73z m5455 36 c26 -25 55 -45 63 -45 10 0 18
-14 22 -37 4 -21 15 -61 25 -90 9 -28 15 -54 12 -57 -13 -13 -70 -5 -99 13
-54 33 -112 190 -91 246 9 22 15 20 68 -30z m-3434 -18 c-34 -11 -38 -60 -7
-77 42 -22 82 34 48 68 -6 6 49 -19 123 -57 74 -38 160 -79 192 -92 32 -13 70
-34 83 -48 33 -33 32 -84 -2 -118 -22 -22 -32 -25 -69 -21 -76 9 -254 130
-385 262 -74 76 -74 76 -52 92 12 8 22 21 22 29 0 11 9 9 37 -7 l36 -22 -26
-9z m-3053 21 c3 -7 7 -38 9 -68 l5 -55 -56 -18 c-57 -18 -57 -18 -74 3 -10
13 -18 39 -18 60 0 30 6 44 31 64 33 28 97 36 103 14z m872 -32 c0 -44 17 -64
63 -72 56 -10 68 -20 80 -67 15 -61 30 -71 95 -63 54 6 55 6 85 -32 l30 -38
-56 -30 c-53 -28 -55 -28 -67 -10 -35 59 -52 70 -107 71 l-54 0 -5 50 c-7 64
-11 70 -65 91 -49 18 -53 27 -30 70 8 16 15 37 15 47 0 9 4 17 8 17 4 0 8 -15
8 -34z m5512 -35 c24 -135 92 -211 189 -211 51 0 52 -1 58 -32 3 -18 6 -48 8
-67 2 -32 -1 -35 -32 -42 -62 -13 -130 13 -182 70 -26 27 -54 72 -64 98 -22
64 -32 207 -15 228 21 25 27 18 38 -44z m-5595 -21 c-7 -47 12 -75 57 -85 37
-8 46 -21 54 -77 9 -60 24 -72 87 -66 49 5 51 4 74 -30 l25 -36 -53 -23 c-28
-12 -58 -22 -65 -23 -21 0 -101 80 -136 139 -30 49 -92 209 -84 216 4 2 42 24
45 25 0 0 -1 -18 -4 -40z m5536 -181 c27 -70 61 -116 114 -153 l42 -28 -89 6
c-105 8 -238 41 -356 87 l-85 33 46 7 c106 16 213 97 269 202 l25 47 7 -73 c4
-40 16 -98 27 -128z m-5601 129 c20 -84 74 -188 132 -251 29 -32 51 -59 49
-61 -2 -1 -26 -9 -53 -16 -47 -13 -49 -12 -67 11 -56 74 -142 311 -126 352 3
9 17 17 29 17 20 0 25 -8 36 -52z m4529 -70 l63 -78 -34 0 c-39 0 -95 -35
-114 -70 -13 -25 -12 -111 2 -141 6 -14 0 -17 -34 -21 -36 -3 -41 -1 -46 19
-16 61 -125 110 -227 102 -51 -4 -50 -6 -26 59 10 25 8 25 74 -19 58 -39 126
-55 174 -40 52 15 73 42 79 99 4 44 1 53 -26 83 -27 31 -35 34 -100 37 -48 3
-86 -1 -118 -12 -26 -9 -51 -16 -56 -16 -4 0 -8 21 -8 46 0 40 2 45 18 39 37
-16 118 -35 149 -35 45 0 111 28 125 53 11 21 11 21 27 -3 9 -14 44 -60 78
-102z m-5017 50 c0 -46 26 -99 58 -119 18 -11 17 -14 -19 -50 -45 -45 -77 -50
-127 -19 -32 20 -62 71 -62 106 0 56 67 124 123 124 25 0 27 -3 27 -42z m-194
-16 c5 -4 10 -32 10 -63 0 -39 6 -66 21 -92 12 -20 18 -39 13 -42 -10 -6 -146
83 -174 114 -19 21 -19 21 0 42 33 38 103 60 130 41z m535 -7 c97 -51 88 -191
-15 -230 -42 -16 -46 -16 -89 3 -29 13 -51 31 -61 51 -59 113 54 233 165 176z
m2059 -21 c0 -1 -4 -14 -10 -29 -14 -37 10 -92 45 -101 23 -6 26 -11 23 -43
-2 -29 -7 -37 -26 -39 -31 -5 -74 14 -101 42 l-21 22 27 81 c22 67 29 79 45
75 10 -2 18 -6 18 -8z m-2266 -164 c20 -47 78 -90 119 -90 25 0 27 -2 17 -21
-13 -23 -32 -22 -167 8 -76 17 -80 22 -63 68 9 25 56 75 70 75 3 0 14 -18 24
-40z m4987 11 c20 -21 29 -39 29 -63 0 -49 -9 -56 -83 -72 l-67 -14 -20 26
c-48 60 -2 152 75 152 27 0 44 -8 66 -29z m-2790 -63 c23 -17 44 -23 87 -23
63 0 72 -6 72 -50 0 -63 -71 -135 -135 -135 -36 0 -94 29 -111 56 -10 16 -7
32 18 97 17 42 33 77 35 77 2 0 17 -10 34 -22z m229 -77 c0 -48 31 -76 84 -76
43 0 46 -2 46 -26 0 -30 -22 -53 -65 -69 -40 -15 -88 -5 -124 26 l-31 25 21
29 c12 15 24 49 26 74 5 36 9 46 24 46 14 0 19 -7 19 -29z m204 -70 c7 -48 36
-71 86 -71 31 0 36 -4 46 -35 10 -33 9 -37 -13 -55 -29 -22 -82 -35 -111 -26
-16 5 -22 22 -32 89 -6 45 -14 94 -17 110 -5 22 -2 27 14 27 16 0 22 -9 27
-39z m-290 -96 c64 -50 67 -54 60 -83 -12 -48 -22 -59 -67 -70 -24 -6 -56 -21
-70 -33 l-27 -21 -31 26 c-17 14 -35 26 -40 26 -14 0 -39 56 -39 87 0 15 6 39
13 53 11 22 18 25 62 22 28 -2 61 1 75 7 14 5 27 10 29 10 2 1 17 -10 35 -24z
m606 -125 c26 -11 39 -11 64 -2 23 9 32 9 35 1 2 -6 12 -20 22 -30 17 -17 17
-19 -2 -44 -85 -107 -259 -45 -259 92 l0 42 43 3 c37 3 43 0 53 -23 7 -14 26
-32 44 -39z m-170 -1 c0 -40 26 -94 56 -118 l23 -18 -29 -28 c-34 -33 -82 -45
-130 -32 -19 5 -36 10 -38 12 -3 2 -32 164 -32 178 0 4 17 7 38 7 20 1 51 7
67 15 43 19 45 18 45 -16z m-207 -171 c-3 -17 -21 -46 -40 -64 -29 -29 -37
-33 -54 -23 -15 7 -18 16 -13 27 4 9 10 47 12 83 3 63 5 67 35 81 l32 15 17
-45 c10 -26 15 -57 11 -74z m1847 84 c38 3 40 2 40 -23 0 -14 3 -47 6 -72 6
-43 5 -46 -24 -61 -41 -21 -92 -21 -92 -1 0 9 -6 18 -13 21 -11 4 -10 18 2 79
12 58 18 72 28 63 7 -5 31 -8 53 -6z m-1320 -37 c0 -9 19 -36 42 -61 l42 -45
-37 -37 c-35 -35 -41 -37 -101 -37 -55 0 -68 4 -91 25 -32 29 -55 71 -55 98 0
17 9 20 63 24 45 3 72 10 93 26 35 26 44 27 44 7z m1535 -21 c22 -22 33 -25
71 -22 40 3 45 1 51 -20 3 -12 16 -31 29 -41 l25 -19 -32 -36 c-55 -63 -145
-69 -198 -12 -20 21 -20 25 -6 52 8 16 15 47 15 70 0 35 6 54 16 54 2 0 15
-12 29 -26z m-1710 -153 c20 -17 41 -31 47 -31 9 0 9 -3 1 -11 -8 -8 -25 -8
-60 -1 -50 11 -87 7 -110 -11 -10 -7 -13 -2 -13 21 0 18 -10 43 -25 61 l-26
30 40 11 c21 5 50 19 63 29 l23 19 12 -43 c8 -26 27 -55 48 -74z m2964 50 c17
-31 67 -46 106 -32 30 11 36 9 59 -12 14 -14 26 -27 26 -30 0 -16 -64 -77 -80
-77 -10 0 -31 10 -47 23 -15 13 -35 26 -43 29 -9 3 -30 28 -47 56 -27 44 -29
51 -15 55 29 8 31 7 41 -12z m-1345 -53 c22 -24 49 -47 58 -53 16 -9 17 -12 2
-42 -33 -67 -126 -93 -190 -54 -27 17 -32 26 -36 73 -3 29 -9 61 -13 71 -6 14
-2 17 26 17 19 0 45 7 59 14 39 22 50 19 94 -26z m-1358 -25 c-3 -27 -8 -78
-11 -115 -6 -64 -8 -68 -31 -68 -31 0 -73 21 -98 49 -17 18 -18 24 -6 45 14
26 7 46 -16 46 -8 0 -14 6 -14 13 0 7 16 13 44 14 46 1 94 21 115 47 21 25 23
20 17 -31z m3045 8 c30 -11 66 -5 89 15 13 11 18 5 37 -42 l21 -55 -21 -20
c-49 -45 -134 -44 -185 3 -48 45 -67 108 -33 108 10 0 24 7 31 15 11 13 14 13
24 1 6 -9 23 -20 37 -25z m-3577 -108 c2 -10 8 -48 11 -84 l7 -66 -31 -13
c-35 -14 -104 -9 -126 10 -13 11 -11 17 10 42 14 16 28 40 31 53 3 13 14 25
25 28 10 3 19 12 19 20 0 13 12 21 42 26 4 0 9 -7 12 -16z m3776 -89 c28 -63
31 -77 19 -85 -31 -20 -107 3 -119 37 -5 13 -16 24 -24 24 -16 0 -31 34 -21
50 3 5 14 10 23 10 9 0 31 9 47 19 17 11 33 20 36 20 4 1 21 -33 39 -75z
m-1816 24 c4 -15 20 -43 37 -63 36 -40 33 -61 -12 -99 -34 -29 -84 -41 -118
-28 l-24 8 32 13 c17 8 31 18 31 24 0 5 -25 38 -56 73 l-56 64 45 0 c30 0 55
8 78 23 19 13 35 21 36 18 1 -3 4 -18 7 -33z m-1514 -43 c34 -7 36 -14 15 -55
-19 -37 -74 -70 -118 -70 -29 0 -39 6 -56 32 l-20 33 23 12 c12 6 33 32 46 57
l24 44 28 -23 c15 -13 41 -26 58 -30z m-517 -95 c41 0 47 -3 47 -20 0 -28 -23
-70 -54 -99 -36 -34 -110 -39 -154 -11 l-34 21 36 39 c19 21 38 54 41 74 l7
35 31 -20 c20 -12 50 -19 80 -19z m3795 -2 c23 -7 42 -16 42 -20 0 -5 -9 -27
-20 -48 -30 -58 -110 -95 -164 -74 -13 5 -12 9 9 25 13 11 34 47 46 80 13 34
27 58 33 55 6 -3 30 -11 54 -18z m-3238 -117 c-8 -64 -18 -111 -24 -111 -23 0
-77 41 -96 72 -11 18 -20 48 -20 66 0 26 4 32 22 32 27 0 108 47 108 62 0 9 3
9 11 1 9 -9 8 -40 -1 -122z m1517 42 c-3 -10 -8 -34 -11 -54 -4 -20 -21 -57
-40 -83 l-33 -47 -27 31 c-30 36 -39 65 -34 106 3 26 8 30 50 35 25 4 55 12
65 18 26 15 35 13 30 -6z m1819 -32 c24 -21 33 -40 38 -77 4 -27 9 -61 12 -75
4 -20 0 -28 -21 -37 -58 -26 -121 -8 -169 48 -35 43 -34 67 7 83 18 8 46 30
62 50 17 19 32 36 35 36 3 0 19 -12 36 -28z m-3387 -146 c37 -8 38 -14 9 -50
-24 -31 -74 -55 -114 -55 -40 0 -99 38 -123 80 l-21 37 43 14 c23 7 52 12 65
11 19 -2 22 2 22 29 l0 31 44 -45 c24 -26 57 -48 75 -52z m993 37 c7 -12 37
-41 67 -64 86 -65 86 -65 52 -83 -41 -21 -100 -19 -138 5 -34 20 -50 44 -64
94 -8 28 -6 34 28 63 22 18 39 26 41 20 2 -7 8 -22 14 -35z m451 -48 c17 -14
22 -25 16 -40 -4 -10 -8 -31 -8 -46 -1 -37 -54 -68 -114 -68 -37 0 -53 6 -82
31 -43 38 -62 98 -44 140 10 25 17 29 48 29 20 0 57 10 81 23 l45 22 18 -35
c9 -19 28 -44 40 -56z m1751 41 c18 -45 75 -105 101 -105 42 0 -12 -97 -68
-124 -19 -9 -45 -16 -58 -16 -32 0 -107 38 -120 61 -9 18 -5 19 60 19 l69 0
-5 78 c-2 42 -9 89 -13 105 -15 47 15 32 34 -18z m-2315 -60 c12 -48 69 -115
99 -115 13 -1 11 -6 -11 -25 -34 -30 -47 -31 -95 -6 -47 24 -79 58 -87 94 -6
23 -2 33 30 62 20 19 40 35 45 35 4 0 13 -20 19 -45z m-1024 -101 c36 -6 37
-8 31 -43 -16 -97 -125 -157 -206 -113 -43 23 -80 76 -80 113 0 22 6 29 34 39
19 6 50 28 68 49 l33 37 42 -37 c24 -22 56 -41 78 -45z m223 -4 c22 -35 28
-85 14 -107 -4 -7 -25 -19 -46 -28 -34 -15 -40 -15 -62 0 -32 21 -54 56 -60
97 -6 33 -5 35 40 52 26 10 54 28 64 41 l17 23 6 -22 c3 -11 16 -37 27 -56z
m3408 31 c14 -22 29 -56 34 -75 8 -36 8 -36 -27 -36 -49 0 -99 26 -123 65 -28
46 -26 65 8 66 15 0 36 4 47 9 31 13 33 12 61 -29z m-2231 -72 c38 -23 41 -32
21 -69 -16 -28 -44 -29 -169 -8 -58 10 -70 15 -78 35 -18 48 -12 63 26 63 42
0 94 20 114 44 13 15 15 14 33 -14 10 -17 34 -40 53 -51z m1791 -21 c15 -15
42 -32 60 -38 40 -13 39 -13 17 -52 l-18 -30 -90 5 c-116 7 -142 17 -153 59
-8 32 -8 33 34 46 24 7 56 25 71 41 25 27 29 28 40 13 7 -9 25 -29 39 -44z
m394 -45 c21 -4 30 -11 30 -24 0 -24 -30 -36 -112 -44 -34 -3 -84 -8 -109 -10
-41 -5 -47 -3 -57 20 -19 41 -15 51 28 64 22 6 55 27 73 45 l32 33 43 -39 c23
-21 56 -41 72 -45z"/>
<path d="M3532 3787 c-51 -29 -72 -107 -43 -161 42 -77 167 -72 205 8 20 42
20 57 2 101 -24 56 -107 83 -164 52z m97 -37 c10 -5 24 -22 30 -39 30 -71 -65
-135 -116 -78 -28 31 -35 55 -21 80 23 44 67 59 107 37z"/>
<path d="M2476 3056 c-64 -40 -184 -74 -281 -81 -117 -8 -169 -27 -185 -65
-51 -122 149 -192 311 -109 84 43 206 180 225 253 8 34 -16 35 -70 2z m-25
-85 c-34 -47 -117 -117 -168 -141 -111 -53 -266 -12 -237 63 8 23 53 34 175
46 65 6 130 20 170 34 83 32 84 32 60 -2z"/>
<path d="M3813 2835 c-93 -40 -97 -209 -5 -243 56 -21 65 -22 101 -12 119 32
137 202 27 254 -41 19 -80 20 -123 1z m106 -39 c30 -16 51 -53 51 -91 0 -30
-43 -81 -74 -89 -54 -13 -116 36 -116 92 0 43 14 68 48 86 34 19 56 20 91 2z"/>
<path d="M4530 2091 c-114 -37 -179 -133 -167 -246 19 -181 214 -273 364 -172
66 45 98 110 97 198 0 57 -5 75 -30 115 -40 66 -104 105 -181 110 -32 2 -69 0
-83 -5z m172 -67 c46 -33 77 -85 85 -144 7 -49 -32 -135 -74 -166 -101 -74
-238 -42 -292 68 -50 103 -2 221 109 267 45 19 126 7 172 -25z"/>
<path d="M3761 1784 c-41 -53 -13 -114 52 -114 43 0 67 26 67 73 0 65 -79 92
-119 41z"/>
</g>
</svg>
